<svg xmlns="http://www.w3.org/2000/svg" width="25" height="24" viewBox="0 0 25 24" fill="none">
    <g clip-path="url(#clip0_6645_75474)">
        <path fill-rule="evenodd" clip-rule="evenodd"
              d="M3.62988 3.59998C3.62988 3.32383 3.85374 3.09998 4.12988 3.09998H6.31988C6.55765 3.09998 6.76253 3.26742 6.80987 3.50043L7.49851 6.88998H20.8999C21.0532 6.88998 21.198 6.9603 21.2928 7.08078C21.3876 7.20126 21.4219 7.35857 21.3859 7.50757L19.4259 15.6076C19.3716 15.8319 19.1707 15.99 18.9399 15.99H8.97988C8.74751 15.99 8.54576 15.8299 8.49296 15.6036L6.60296 7.50359L6.59989 7.48952L5.91125 4.09998H4.12988C3.85374 4.09998 3.62988 3.87612 3.62988 3.59998ZM7.71998 7.88998L9.37665 14.99H18.5464L20.2645 7.88998H7.71998ZM8.43988 18.89C8.43988 17.7838 9.33374 16.89 10.4399 16.89C11.546 16.89 12.4399 17.7838 12.4399 18.89C12.4399 19.9961 11.546 20.89 10.4399 20.89C9.33374 20.89 8.43988 19.9961 8.43988 18.89ZM10.4399 17.89C9.88602 17.89 9.43988 18.3361 9.43988 18.89C9.43988 19.4438 9.88603 19.89 10.4399 19.89C10.9937 19.89 11.4399 19.4438 11.4399 18.89C11.4399 18.3361 10.9937 17.89 10.4399 17.89ZM15.4399 18.89C15.4399 17.7838 16.3337 16.89 17.4399 16.89C18.546 16.89 19.4399 17.7838 19.4399 18.89C19.4399 19.9961 18.546 20.89 17.4399 20.89C16.3337 20.89 15.4399 19.9961 15.4399 18.89ZM17.4399 17.89C16.886 17.89 16.4399 18.3361 16.4399 18.89C16.4399 19.4438 16.886 19.89 17.4399 19.89C17.9937 19.89 18.4399 19.4438 18.4399 18.89C18.4399 18.3361 17.9937 17.89 17.4399 17.89Z"
              fill="#211F1D"/>
    </g>
    <defs>
        <clipPath id="clip0_6645_75474">
            <rect width="24" height="24" fill="white" transform="translate(0.5)"/>
        </clipPath>
    </defs>
</svg>