<!-- Font: Elsie Swash Caps -->
<svg width="51.3" height="68" viewBox="0 0 51.3 68" xmlns="http://www.w3.org/2000/svg">
    <g id="svgGroup" stroke-linecap="round" fill-rule="evenodd" font-size="9pt" stroke="#000" stroke-width="0.25mm"
       fill="#000" style="stroke:#000;stroke-width:0.25mm;fill:#000">
        <path d="M 34.2 54.2 L 48.7 11.8 Q 49.4 9.7 49.4 7.55 A 5.018 5.018 0 0 0 48.098 4.171 A 6.805 6.805 0 0 0 47.7 3.75 Q 46 2.1 44.75 2.1 Q 43.5 2.1 43.5 2.9 Q 43.5 3.555 44.036 3.875 A 1.633 1.633 0 0 0 44.3 4 Q 47.4 5.2 47.4 8.6 A 5.014 5.014 0 0 1 45.898 12.253 A 6.191 6.191 0 0 1 45.8 12.35 A 5.3 5.3 0 0 1 43.331 13.682 Q 42.505 13.887 41.531 13.9 A 9.963 9.963 0 0 1 41.4 13.9 Q 38.6 13.9 36.9 11.9 A 7.111 7.111 0 0 1 35.204 7.372 A 9.035 9.035 0 0 1 35.2 7.1 A 6.571 6.571 0 0 1 36.915 2.663 A 8.882 8.882 0 0 1 37.4 2.15 Q 39.6 0 43.2 0 A 8.78 8.78 0 0 1 45.997 0.428 A 7.305 7.305 0 0 1 49.05 2.4 A 9.663 9.663 0 0 1 50.377 4.158 A 6.49 6.49 0 0 1 51.3 7.45 A 16.882 16.882 0 0 1 51.184 9.48 Q 51.058 10.524 50.792 11.42 A 9.43 9.43 0 0 1 50.6 12 L 33.5 61.9 Q 32.8 64.1 32.2 65.2 Q 30.971 67.659 28.353 67.959 A 6.621 6.621 0 0 1 27.6 68 L 27.3 68 L 7.1 2.6 L 0 2.6 L 0 1 L 26 1 L 26 2.6 L 18.6 2.6 L 33.6 54.2 L 34.2 54.2 Z"
              vector-effect="non-scaling-stroke"/>
    </g>
</svg>
