<!-- Font: Elsie Swash Caps -->
<svg width="572" height="98" viewBox="0 0 572 93.802" xmlns="http://www.w3.org/2000/svg">
    <g id="svgGroup" stroke-linecap="round" fill-rule="evenodd" font-size="9pt" stroke="#000" stroke-width="0.25mm"
       fill="#000" style="stroke:#000;stroke-width:0.25mm;fill:#000">
        <path d="M 34.2 58.5 L 48.7 16.1 Q 49.4 14 49.4 11.85 A 5.018 5.018 0 0 0 48.098 8.47 A 6.805 6.805 0 0 0 47.7 8.05 Q 46 6.4 44.75 6.4 Q 43.5 6.4 43.5 7.2 Q 43.5 7.855 44.036 8.175 A 1.633 1.633 0 0 0 44.3 8.3 Q 47.4 9.5 47.4 12.9 A 5.014 5.014 0 0 1 45.898 16.552 A 6.191 6.191 0 0 1 45.8 16.65 A 5.3 5.3 0 0 1 43.331 17.982 Q 42.505 18.186 41.531 18.199 A 9.963 9.963 0 0 1 41.4 18.2 Q 38.6 18.2 36.9 16.2 A 7.111 7.111 0 0 1 35.204 11.672 A 9.035 9.035 0 0 1 35.2 11.4 A 6.571 6.571 0 0 1 36.915 6.963 A 8.882 8.882 0 0 1 37.4 6.45 Q 39.6 4.3 43.2 4.3 A 8.78 8.78 0 0 1 45.997 4.727 A 7.305 7.305 0 0 1 49.05 6.7 A 9.663 9.663 0 0 1 50.377 8.457 A 6.49 6.49 0 0 1 51.3 11.75 A 16.882 16.882 0 0 1 51.184 13.779 Q 51.058 14.824 50.792 15.719 A 9.43 9.43 0 0 1 50.6 16.3 L 33.5 66.2 Q 32.8 68.4 32.2 69.5 Q 30.971 71.959 28.353 72.258 A 6.621 6.621 0 0 1 27.6 72.3 L 27.3 72.3 L 7.1 6.9 L 0 6.9 L 0 5.3 L 26 5.3 L 26 6.9 L 18.6 6.9 L 33.6 58.5 L 34.2 58.5 Z M 378.7 58.5 L 393.2 16.1 Q 393.9 14 393.9 11.85 A 5.018 5.018 0 0 0 392.598 8.47 A 6.805 6.805 0 0 0 392.2 8.05 Q 390.5 6.4 389.25 6.4 Q 388 6.4 388 7.2 Q 388 7.855 388.536 8.175 A 1.633 1.633 0 0 0 388.8 8.3 Q 391.9 9.5 391.9 12.9 A 5.014 5.014 0 0 1 390.398 16.552 A 6.191 6.191 0 0 1 390.3 16.65 A 5.3 5.3 0 0 1 387.831 17.982 Q 387.005 18.186 386.031 18.199 A 9.963 9.963 0 0 1 385.9 18.2 Q 383.1 18.2 381.4 16.2 A 7.111 7.111 0 0 1 379.704 11.672 A 9.035 9.035 0 0 1 379.7 11.4 A 6.571 6.571 0 0 1 381.415 6.963 A 8.882 8.882 0 0 1 381.9 6.45 Q 384.1 4.3 387.7 4.3 A 8.78 8.78 0 0 1 390.497 4.727 A 7.305 7.305 0 0 1 393.55 6.7 A 9.663 9.663 0 0 1 394.877 8.457 A 6.49 6.49 0 0 1 395.8 11.75 A 16.882 16.882 0 0 1 395.684 13.779 Q 395.558 14.824 395.292 15.719 A 9.43 9.43 0 0 1 395.1 16.3 L 378 66.2 Q 377.3 68.4 376.7 69.5 Q 375.471 71.959 372.853 72.258 A 6.621 6.621 0 0 1 372.1 72.3 L 371.8 72.3 L 351.6 6.9 L 344.5 6.9 L 344.5 5.3 L 370.5 5.3 L 370.5 6.9 L 363.1 6.9 L 378.1 58.5 L 378.7 58.5 Z M 260.7 23.5 L 260.9 23.3 Q 258.5 20.6 258.5 16.9 Q 258.5 13.2 260.95 10.9 Q 263.4 8.6 266.8 8.6 A 9.869 9.869 0 0 1 269.149 8.864 A 6.879 6.879 0 0 1 272.25 10.5 A 6.668 6.668 0 0 1 273.651 12.296 A 5.748 5.748 0 0 1 274.3 15 A 7.127 7.127 0 0 1 274.044 16.956 A 5.497 5.497 0 0 1 272.75 19.25 Q 271.2 20.9 268.95 20.9 A 6.219 6.219 0 0 1 266.994 20.603 A 5.314 5.314 0 0 1 265.15 19.55 A 4.337 4.337 0 0 1 263.608 16.392 A 5.485 5.485 0 0 1 263.6 16.1 A 5.891 5.891 0 0 1 263.751 14.708 Q 264.203 12.856 266 12.351 A 4.378 4.378 0 0 1 266.2 12.3 A 1.63 1.63 0 0 0 266.583 12.168 Q 267.025 11.944 267.089 11.468 A 1.263 1.263 0 0 0 267.1 11.3 Q 267.1 10.578 266.286 10.508 A 2.155 2.155 0 0 0 266.1 10.5 A 5.377 5.377 0 0 0 262.411 11.953 A 7.245 7.245 0 0 0 262.05 12.3 A 6.086 6.086 0 0 0 260.396 15.701 A 8.464 8.464 0 0 0 260.3 17 A 10.096 10.096 0 0 0 263.708 24.623 A 14.878 14.878 0 0 0 265 25.7 Q 273.3 31.9 273.3 42.5 A 22.891 22.891 0 0 1 272.238 49.616 A 19.08 19.08 0 0 1 267.75 57.05 A 18.584 18.584 0 0 1 254.729 62.775 A 24.848 24.848 0 0 1 253.6 62.8 A 20.888 20.888 0 0 1 248.863 62.28 A 17.847 17.847 0 0 1 246.1 61.4 A 21.891 21.891 0 0 0 241.317 63.441 A 19.465 19.465 0 0 0 239.55 64.6 A 8.757 8.757 0 0 0 238.055 65.972 Q 236.7 67.57 236.7 69.5 A 4.783 4.783 0 0 0 237.223 71.807 Q 238.571 74.3 243.4 74.3 A 10.477 10.477 0 0 0 245.135 74.127 Q 248.289 73.586 254.2 71.35 Q 260.2 69.081 263.863 68.557 A 14.162 14.162 0 0 1 265.85 68.4 Q 269.7 68.4 272.3 71.05 A 8.794 8.794 0 0 1 274.579 75.307 A 13.154 13.154 0 0 1 274.9 78.3 Q 274.9 85.434 269.402 89.574 A 16.695 16.695 0 0 1 269.3 89.65 Q 263.7 93.8 256.7 93.8 Q 243 93.8 238.4 82.3 A 8.798 8.798 0 0 1 235.078 80.897 Q 231.936 78.64 231.9 73.419 A 17.603 17.603 0 0 1 231.9 73.3 A 10.061 10.061 0 0 1 234.725 66.282 A 13.679 13.679 0 0 1 235.4 65.6 A 22.366 22.366 0 0 1 241.016 61.771 A 28.019 28.019 0 0 1 244.1 60.5 Q 239.3 58 236.6 53.25 A 20.811 20.811 0 0 1 233.973 44.435 A 25.384 25.384 0 0 1 233.9 42.5 A 22.835 22.835 0 0 1 234.943 35.452 A 18.858 18.858 0 0 1 239.45 28 A 18.622 18.622 0 0 1 252.275 22.335 A 24.916 24.916 0 0 1 253.6 22.3 A 20.878 20.878 0 0 1 257.443 22.674 A 27.863 27.863 0 0 1 260.7 23.5 Z M 102.6 68.8 L 109.2 68.8 L 109.2 70.3 L 87.1 70.3 L 87.1 68.8 L 93.7 68.8 L 93.7 25.8 L 86.6 25.8 L 86.6 24.3 L 88.7 24.3 A 82.395 82.395 0 0 0 95.733 24.014 Q 99.27 23.711 102.386 23.085 A 50.054 50.054 0 0 0 102.8 23 L 102.8 33 L 103.4 33 Q 105.1 28.2 109.15 25.25 Q 113.2 22.3 118.2 22.3 A 22.854 22.854 0 0 1 122.434 22.663 Q 124.754 23.102 126.51 24.07 A 9.602 9.602 0 0 1 130.1 27.45 A 17.567 17.567 0 0 1 131.954 31.695 Q 133.199 35.85 133.292 41.824 A 62.717 62.717 0 0 1 133.3 42.8 L 133.3 68.8 L 139.9 68.8 L 139.9 70.3 L 117.8 70.3 L 117.8 68.8 L 124.4 68.8 L 124.4 44.2 A 118.952 118.952 0 0 0 124.319 39.625 Q 124.028 32.113 122.7 29.3 A 7.891 7.891 0 0 0 121.368 27.417 A 10.241 10.241 0 0 0 120.25 26.4 A 5.335 5.335 0 0 0 118.6 25.54 Q 117.848 25.293 116.929 25.184 A 13.073 13.073 0 0 0 115.4 25.1 Q 112.2 25.1 109.35 27.4 A 12.765 12.765 0 0 0 106.059 31.475 A 16.634 16.634 0 0 0 105.1 33.7 A 41.183 41.183 0 0 0 103.316 40.906 Q 102.6 45.402 102.6 50.7 L 102.6 68.8 Z M 491.1 43.9 L 491.1 25.8 L 484 25.8 L 484 24.3 L 486.1 24.3 A 80.163 80.163 0 0 0 493.039 24.014 Q 496.527 23.711 499.593 23.085 A 48.389 48.389 0 0 0 500 23 L 500 68.8 L 506.6 68.8 L 506.6 70.3 L 490.9 70.3 L 490.9 61.6 L 490.3 61.6 Q 488.6 66.4 484.55 69.35 Q 480.5 72.3 475.5 72.3 A 21.921 21.921 0 0 1 471.431 71.951 Q 469.236 71.535 467.579 70.624 A 8.991 8.991 0 0 1 464.05 67.2 A 17.755 17.755 0 0 1 462.401 63.187 Q 461.1 58.64 461.1 51.8 L 461.1 25.8 L 454 25.8 L 454 24.3 L 456.1 24.3 A 80.163 80.163 0 0 0 463.039 24.014 Q 466.527 23.711 469.593 23.085 A 48.389 48.389 0 0 0 470 23 L 470 50.4 Q 470 58.038 470.462 61.054 A 9.158 9.158 0 0 0 470.7 62.2 Q 471.299 64.253 471.971 65.794 A 19.443 19.443 0 0 0 472.2 66.3 A 5.78 5.78 0 0 0 473.871 68.372 Q 475.364 69.5 477.65 69.5 A 10.804 10.804 0 0 0 481.857 68.694 A 10.247 10.247 0 0 0 484.35 67.2 A 12.765 12.765 0 0 0 487.641 63.125 A 16.634 16.634 0 0 0 488.6 60.9 A 41.183 41.183 0 0 0 490.384 53.694 Q 491.1 49.198 491.1 43.9 Z M 218.5 46.3 L 218.5 64 Q 218.5 68.1 220.3 68.1 A 2.669 2.669 0 0 0 222.414 66.92 Q 224.031 64.866 224.87 59.235 A 60.531 60.531 0 0 0 225.2 56.6 L 227 56.8 Q 226.014 66.984 221.964 70.477 A 7.496 7.496 0 0 1 216.9 72.3 A 5.546 5.546 0 0 1 215.252 72.068 A 4.281 4.281 0 0 1 213.05 70.5 Q 211.7 68.7 211.35 66.55 A 23.564 23.564 0 0 1 211.137 64.79 Q 211.056 63.846 211.023 62.757 A 51.497 51.497 0 0 1 211 61.2 L 210.4 61.2 A 15.452 15.452 0 0 1 208.588 65.641 A 13.025 13.025 0 0 1 205.1 69.4 Q 201.261 72.183 195.35 72.295 A 26.361 26.361 0 0 1 194.85 72.3 A 19.683 19.683 0 0 1 188.393 71.269 A 17.573 17.573 0 0 1 183.9 68.95 A 10.785 10.785 0 0 1 179.298 61.059 A 15.312 15.312 0 0 1 179.2 59.3 A 13.473 13.473 0 0 1 179.681 55.619 A 10.575 10.575 0 0 1 181.9 51.5 A 13.375 13.375 0 0 1 186.477 48.264 Q 193.307 45.132 207.015 45.1 A 121.52 121.52 0 0 1 207.3 45.1 L 209.6 45.1 L 209.6 40.2 Q 209.6 32.3 206.9 28.3 Q 204.2 24.3 197.55 24.3 A 26.059 26.059 0 0 0 194.09 24.514 Q 190.028 25.059 187.8 27 A 12.208 12.208 0 0 0 186.241 28.61 Q 184.7 30.555 184.7 32.6 A 1.377 1.377 0 0 0 184.74 32.949 Q 184.885 33.5 185.55 33.5 A 1.173 1.173 0 0 0 185.928 33.444 Q 186.425 33.275 186.5 32.6 A 3.156 3.156 0 0 1 187.357 31.003 Q 188.315 30.071 190.206 30.005 A 8.422 8.422 0 0 1 190.5 30 A 5.038 5.038 0 0 1 192.11 30.246 A 4.156 4.156 0 0 1 194 31.55 A 5.531 5.531 0 0 1 195.265 34.631 A 7.236 7.236 0 0 1 195.3 35.35 A 4.995 4.995 0 0 1 193.776 39.028 A 6.137 6.137 0 0 1 193.65 39.15 A 5.617 5.617 0 0 1 190.687 40.591 A 7.854 7.854 0 0 1 189.35 40.7 A 6.092 6.092 0 0 1 184.942 38.845 A 8.127 8.127 0 0 1 184.75 38.65 A 7.012 7.012 0 0 1 182.802 33.787 A 9.096 9.096 0 0 1 182.8 33.6 Q 182.8 28.328 186.965 25.493 A 12.117 12.117 0 0 1 187.5 25.15 A 19.134 19.134 0 0 1 193.786 22.77 A 26.486 26.486 0 0 1 198.9 22.3 A 41.149 41.149 0 0 1 204.192 22.614 Q 211.732 23.596 214.65 27.65 Q 218.5 33 218.5 46.3 Z M 441.7 46.3 L 441.7 64 Q 441.7 68.1 443.5 68.1 A 2.669 2.669 0 0 0 445.614 66.92 Q 447.231 64.866 448.07 59.235 A 60.531 60.531 0 0 0 448.4 56.6 L 450.2 56.8 Q 449.214 66.984 445.164 70.477 A 7.496 7.496 0 0 1 440.1 72.3 A 5.546 5.546 0 0 1 438.452 72.068 A 4.281 4.281 0 0 1 436.25 70.5 Q 434.9 68.7 434.55 66.55 A 23.564 23.564 0 0 1 434.337 64.79 Q 434.256 63.846 434.223 62.757 A 51.497 51.497 0 0 1 434.2 61.2 L 433.6 61.2 A 15.452 15.452 0 0 1 431.788 65.641 A 13.025 13.025 0 0 1 428.3 69.4 Q 424.461 72.183 418.55 72.295 A 26.361 26.361 0 0 1 418.05 72.3 A 19.683 19.683 0 0 1 411.593 71.269 A 17.573 17.573 0 0 1 407.1 68.95 A 10.785 10.785 0 0 1 402.498 61.059 A 15.312 15.312 0 0 1 402.4 59.3 A 13.473 13.473 0 0 1 402.881 55.619 A 10.575 10.575 0 0 1 405.1 51.5 A 13.375 13.375 0 0 1 409.677 48.264 Q 416.507 45.132 430.215 45.1 A 121.52 121.52 0 0 1 430.5 45.1 L 432.8 45.1 L 432.8 40.2 Q 432.8 32.3 430.1 28.3 Q 427.4 24.3 420.75 24.3 A 26.059 26.059 0 0 0 417.29 24.514 Q 413.228 25.059 411 27 A 12.208 12.208 0 0 0 409.441 28.61 Q 407.9 30.555 407.9 32.6 A 1.377 1.377 0 0 0 407.94 32.949 Q 408.085 33.5 408.75 33.5 A 1.173 1.173 0 0 0 409.128 33.444 Q 409.625 33.275 409.7 32.6 A 3.156 3.156 0 0 1 410.557 31.003 Q 411.515 30.071 413.406 30.005 A 8.422 8.422 0 0 1 413.7 30 A 5.038 5.038 0 0 1 415.31 30.246 A 4.156 4.156 0 0 1 417.2 31.55 A 5.531 5.531 0 0 1 418.465 34.631 A 7.236 7.236 0 0 1 418.5 35.35 A 4.995 4.995 0 0 1 416.976 39.028 A 6.137 6.137 0 0 1 416.85 39.15 A 5.617 5.617 0 0 1 413.887 40.591 A 7.854 7.854 0 0 1 412.55 40.7 A 6.092 6.092 0 0 1 408.142 38.845 A 8.127 8.127 0 0 1 407.95 38.65 A 7.012 7.012 0 0 1 406.002 33.787 A 9.096 9.096 0 0 1 406 33.6 Q 406 28.328 410.165 25.493 A 12.117 12.117 0 0 1 410.7 25.15 A 19.134 19.134 0 0 1 416.986 22.77 A 26.486 26.486 0 0 1 422.1 22.3 A 41.149 41.149 0 0 1 427.392 22.614 Q 434.932 23.596 437.85 27.65 Q 441.7 33 441.7 46.3 Z M 298.2 48.4 L 293.5 48.4 L 293.5 51.3 Q 293.5 57.697 295.59 62.192 A 17.173 17.173 0 0 0 296.85 64.45 A 10.719 10.719 0 0 0 304.617 69.364 A 14.714 14.714 0 0 0 306.65 69.5 A 17.625 17.625 0 0 0 310.839 69.03 A 11.926 11.926 0 0 0 316.75 65.7 A 19.551 19.551 0 0 0 320.615 59.765 A 25.703 25.703 0 0 0 321.9 55.9 L 323.7 56.1 A 24.703 24.703 0 0 1 321.437 62.411 A 20.08 20.08 0 0 1 317.25 67.85 Q 312.4 72.3 305 72.3 A 25.137 25.137 0 0 1 298.577 71.527 A 17.184 17.184 0 0 1 289.2 65.45 A 23.955 23.955 0 0 1 284.871 56.482 Q 284.001 53.11 283.838 49.156 A 45.028 45.028 0 0 1 283.8 47.3 A 35.765 35.765 0 0 1 284.582 39.602 Q 285.74 34.345 288.614 30.404 A 22.001 22.001 0 0 1 289.6 29.15 A 18.863 18.863 0 0 1 300.909 22.755 A 28.212 28.212 0 0 1 306.1 22.3 Q 313.179 22.3 318.076 25.151 A 17.908 17.908 0 0 1 318.65 25.5 A 10.284 10.284 0 0 1 323.537 32.903 A 14.265 14.265 0 0 1 323.7 35.1 Q 323.7 44.828 312.788 47.218 A 26.828 26.828 0 0 1 312.4 47.3 A 53.147 53.147 0 0 1 307.731 47.97 Q 305.226 48.225 302.336 48.329 A 115.568 115.568 0 0 1 298.2 48.4 Z M 173.5 25.8 L 161.4 25.8 L 161.4 59.8 Q 161.4 67.557 162.338 68.918 A 0.871 0.871 0 0 0 162.5 69.1 Q 163.068 69.574 163.996 69.599 A 3.876 3.876 0 0 0 164.1 69.6 A 4.717 4.717 0 0 0 166.487 68.92 Q 167.738 68.195 168.95 66.7 Q 171.3 63.8 172.8 60.4 L 174.4 61 A 25.948 25.948 0 0 1 171.851 65.91 A 21.575 21.575 0 0 1 169.3 69.05 A 11.382 11.382 0 0 1 166.309 71.272 A 9.68 9.68 0 0 1 161.9 72.3 A 15.064 15.064 0 0 1 159.228 72.082 Q 155.566 71.419 154.25 68.75 A 13.008 13.008 0 0 1 153.346 66.211 Q 152.5 62.884 152.5 57.6 L 152.5 25.8 L 145.4 25.8 L 145.4 24.3 L 146.1 24.3 A 14.745 14.745 0 0 0 152.135 23.137 Q 158.124 20.478 159.971 11.745 A 30.968 30.968 0 0 0 160.1 11.1 L 161.4 11.1 L 161.4 24.3 L 173.5 24.3 L 173.5 25.8 Z M 571.1 25.8 L 559 25.8 L 559 59.8 Q 559 67.557 559.938 68.918 A 0.871 0.871 0 0 0 560.1 69.1 Q 560.668 69.574 561.596 69.599 A 3.876 3.876 0 0 0 561.7 69.6 A 4.717 4.717 0 0 0 564.087 68.92 Q 565.338 68.195 566.55 66.7 Q 568.9 63.8 570.4 60.4 L 572 61 A 25.948 25.948 0 0 1 569.451 65.91 A 21.575 21.575 0 0 1 566.9 69.05 A 11.382 11.382 0 0 1 563.909 71.272 A 9.68 9.68 0 0 1 559.5 72.3 A 15.064 15.064 0 0 1 556.828 72.082 Q 553.166 71.419 551.85 68.75 A 13.008 13.008 0 0 1 550.946 66.211 Q 550.1 62.884 550.1 57.6 L 550.1 25.8 L 543 25.8 L 543 24.3 L 543.7 24.3 A 14.745 14.745 0 0 0 549.735 23.137 Q 555.724 20.478 557.571 11.745 A 30.968 30.968 0 0 0 557.7 11.1 L 559 11.1 L 559 24.3 L 571.1 24.3 L 571.1 25.8 Z M 529.9 0 L 529.9 68.8 L 536.5 68.8 L 536.5 70.3 L 514.4 70.3 L 514.4 68.8 L 521 68.8 L 521 2.8 L 513.9 2.8 L 513.9 1.3 L 516 1.3 A 80.163 80.163 0 0 0 522.939 1.014 Q 526.427 0.711 529.493 0.085 A 48.389 48.389 0 0 0 529.9 0 Z M 73.2 23 L 73.2 68.8 L 79.8 68.8 L 79.8 70.3 L 57.7 70.3 L 57.7 68.8 L 64.3 68.8 L 64.3 25.8 L 57.2 25.8 L 57.2 24.3 L 59.3 24.3 A 80.163 80.163 0 0 0 66.239 24.014 Q 69.727 23.711 72.793 23.085 A 48.389 48.389 0 0 0 73.2 23 Z M 263.75 49.5 A 43.019 43.019 0 0 0 263.963 47.156 Q 264.049 45.848 264.081 44.356 A 86.498 86.498 0 0 0 264.1 42.5 A 80.476 80.476 0 0 0 264.051 39.601 Q 263.969 37.331 263.75 35.55 A 27.871 27.871 0 0 0 262.582 30.343 A 31.094 31.094 0 0 0 262.4 29.8 A 9.829 9.829 0 0 0 261.259 27.477 A 7.742 7.742 0 0 0 259.2 25.4 A 8.247 8.247 0 0 0 256.435 24.208 Q 255.307 23.94 253.993 23.905 A 14.946 14.946 0 0 0 253.6 23.9 A 12.666 12.666 0 0 0 251.173 24.12 Q 249.698 24.408 248.525 25.073 A 7.497 7.497 0 0 0 248 25.4 A 7.959 7.959 0 0 0 245.416 28.358 A 10.547 10.547 0 0 0 244.8 29.8 A 28.484 28.484 0 0 0 243.548 34.837 A 26.03 26.03 0 0 0 243.45 35.55 A 41.371 41.371 0 0 0 243.237 37.863 Q 243.168 38.9 243.134 40.06 A 82.951 82.951 0 0 0 243.1 42.5 A 81.069 81.069 0 0 0 243.149 45.406 Q 243.2 46.832 243.305 48.075 A 39.772 39.772 0 0 0 243.45 49.5 Q 243.8 52.4 244.8 55.3 A 9.829 9.829 0 0 0 245.941 57.623 A 7.742 7.742 0 0 0 248 59.7 A 8.247 8.247 0 0 0 250.765 60.892 Q 251.893 61.16 253.207 61.195 A 14.946 14.946 0 0 0 253.6 61.2 A 12.666 12.666 0 0 0 256.027 60.98 Q 257.502 60.692 258.675 60.027 A 7.497 7.497 0 0 0 259.2 59.7 A 7.959 7.959 0 0 0 261.784 56.742 A 10.547 10.547 0 0 0 262.4 55.3 Q 263.4 52.4 263.75 49.5 Z M 240.7 82.5 L 240.6 82.5 A 12.345 12.345 0 0 0 245.903 89.352 A 15.822 15.822 0 0 0 246.3 89.6 A 18.139 18.139 0 0 0 255.285 92.19 A 21.623 21.623 0 0 0 255.95 92.2 A 19.76 19.76 0 0 0 263.585 90.735 A 18.96 18.96 0 0 0 265.7 89.7 A 9.832 9.832 0 0 0 268.114 87.823 A 7.581 7.581 0 0 0 270.1 82.5 A 6.7 6.7 0 0 0 269.859 80.654 A 4.969 4.969 0 0 0 268.35 78.25 A 6.003 6.003 0 0 0 265.579 76.883 A 8.675 8.675 0 0 0 263.75 76.7 Q 261.275 76.7 254.464 78.887 A 156.879 156.879 0 0 0 252.3 79.6 A 135.779 135.779 0 0 1 248.805 80.73 Q 243.812 82.264 241.386 82.469 A 8.212 8.212 0 0 1 240.7 82.5 Z M 209.6 53.6 L 209.6 46.9 L 206.45 46.9 A 37.725 37.725 0 0 0 204.725 46.942 Q 203.768 46.986 202.689 47.076 A 73.168 73.168 0 0 0 201.35 47.2 A 22.059 22.059 0 0 0 197.223 48.038 A 26.405 26.405 0 0 0 195.3 48.7 Q 188.9 51 188.9 58.9 A 16.285 16.285 0 0 0 189.197 62.105 Q 189.727 64.742 191.2 66.6 A 7.141 7.141 0 0 0 194.666 68.942 Q 196.364 69.5 198.6 69.5 A 8.842 8.842 0 0 0 205.546 66.375 A 12.278 12.278 0 0 0 206.65 64.9 A 18.145 18.145 0 0 0 209.132 58.606 A 25.453 25.453 0 0 0 209.6 53.6 Z M 432.8 53.6 L 432.8 46.9 L 429.65 46.9 A 37.725 37.725 0 0 0 427.925 46.942 Q 426.968 46.986 425.889 47.076 A 73.168 73.168 0 0 0 424.55 47.2 A 22.059 22.059 0 0 0 420.423 48.038 A 26.405 26.405 0 0 0 418.5 48.7 Q 412.1 51 412.1 58.9 A 16.285 16.285 0 0 0 412.397 62.105 Q 412.927 64.742 414.4 66.6 A 7.141 7.141 0 0 0 417.866 68.942 Q 419.564 69.5 421.8 69.5 A 8.842 8.842 0 0 0 428.746 66.375 A 12.278 12.278 0 0 0 429.85 64.9 A 18.145 18.145 0 0 0 432.332 58.606 A 25.453 25.453 0 0 0 432.8 53.6 Z M 293.5 43.8 L 293.5 46.6 L 297 46.6 Q 303.226 46.6 306.586 45.655 A 10.356 10.356 0 0 0 308.35 45 A 13.463 13.463 0 0 0 310.332 43.819 Q 311.368 43.065 312.065 42.187 A 6.794 6.794 0 0 0 312.8 41.05 A 9.108 9.108 0 0 0 313.483 39.204 Q 314 37.222 314 34.4 A 14.379 14.379 0 0 0 313.559 30.76 A 11.357 11.357 0 0 0 311.85 27.05 A 6.974 6.974 0 0 0 307.117 24.146 A 10.797 10.797 0 0 0 305.3 24 A 9.999 9.999 0 0 0 301.766 24.603 A 8.905 8.905 0 0 0 298.15 27.15 Q 295.4 30.3 294.45 34.5 A 37.768 37.768 0 0 0 293.682 39.51 A 48.795 48.795 0 0 0 293.5 43.8 Z M 62.606 9.509 A 5.566 5.566 0 0 0 64.25 13.35 A 5.461 5.461 0 0 0 66.276 14.649 A 6.217 6.217 0 0 0 68.4 15 A 7.508 7.508 0 0 0 68.497 14.999 A 5.778 5.778 0 0 0 72.6 13.35 A 5.449 5.449 0 0 0 73.926 11.357 A 6.037 6.037 0 0 0 74.3 9.2 Q 74.3 6.7 72.6 5 A 5.707 5.707 0 0 0 70.765 3.752 A 6.05 6.05 0 0 0 68.4 3.3 A 7.237 7.237 0 0 0 68.245 3.302 A 5.513 5.513 0 0 0 64.25 5 A 5.707 5.707 0 0 0 63.009 6.908 A 6.24 6.24 0 0 0 62.6 9.2 A 7.342 7.342 0 0 0 62.606 9.509 Z"
              vector-effect="non-scaling-stroke"/>
    </g>
</svg>
